#!OML:ASF F:\VICON\USERDATA\INSTALL\rory3\rory3.ASF
:FULLY-SPECIFIED
:DEGREES
356
root 0.593865 17.9376 -0.438088 1.89422 -30.7089 2.74344
lowerback 1.96791 -1.45889 -4.64383
upperback -0.071884 -2.03136 2.28933
thorax -0.933163 -0.99093 5.02546
lowerneck -25.8321 -0.512791 -9.90511
upperneck -5.49977 1.63715 7.67572
head 2.09851 1.23485 4.15478
rclavicle 1.17084e-013 -1.11319e-014
rhumerus -32.9649 -5.98639 -71.8242
rradius 39.5441
rwrist 14.7823
rhand -26.2 11.8716
rfingers 7.12502
rthumb 0.352545 -18.1078
lclavicle 1.17084e-013 -1.11319e-014
lhumerus 52.1581 4.85123 43.7522
lradius 99.7339
lwrist 0.462886
lhand -41.1802 26.5764
lfingers 7.12502
lthumb -14.1052 56.0777
rfemur -10.8916 2.74383 9.46331
rtibia 25.356
rfoot -16.2231 -9.42702
rtoes 0.814526
lfemur -1.3042 2.07466 -24.7177
ltibia 13.8279
lfoot -10.6552 6.43626
ltoes -12.8764
357
root 0.595603 17.9384 -0.446741 1.93263 -30.7344 2.69761
lowerback 2.00155 -1.41489 -4.63269
upperback -0.085844 -1.97382 2.28979
thorax -0.973766 -0.960645 5.01987
lowerneck -25.7431 -0.56667 -10.0789
upperneck -5.13941 1.60694 7.65417
head 2.19897 1.22023 4.1736
rclavicle -3.19546e-014 -1.11319e-014
rhumerus -33.129 -5.86987 -71.823
rradius 39.7279
rwrist 14.7109
rhand -26.3549 11.7494
rfingers 7.12502
rthumb 0.202931 -18.2303
lclavicle -3.19546e-014 -1.11319e-014
lhumerus 51.7765 4.33249 43.8799
lradius 99.8253
lwrist 0.504521
lhand -40.872 27.0253
lfingers 7.12502
lthumb -13.8083 56.547
rfemur -10.9386 2.8351 9.51498
rtibia 25.3443
rfoot -16.2397 -9.47155
rtoes 1.04889
lfemur -1.35906 2.13187 -24.6694
ltibia 13.8427
lfoot -10.6272 6.42701
ltoes -13.1479
358
root 0.598436 17.9397 -0.455838 2.01927 -30.7597 2.60531
lowerback 2.10324 -1.36911 -4.59175
upperback -0.203955 -1.91618 2.33972
thorax -1.15927 -0.923885 5.05304
lowerneck -25.5892 -0.639408 -10.2977
upperneck -4.65142 1.5576 7.63581
head 2.33189 1.19496 4.19888
rclavicle 3.9906e-014 1.59028e-014
rhumerus -33.3953 -5.74517 -71.7209
rradius 39.8533
rwrist 14.5821
rhand -26.3135 11.4511
rfingers 7.12502
rthumb 0.242965 -18.5285
lclavicle 3.9906e-014 1.59028e-014
lhumerus 51.2528 3.74496 44.1237
lradius 99.9405
lwrist 0.439039
lhand -40.6073 27.404
lfingers 7.12502
lthumb -13.5531 56.9429
rfemur -11.0403 2.92402 9.61251
rtibia 25.3529
rfoot -16.2078 -9.56097
rtoes 1.05185
lfemur -1.4486 2.09059 -24.5745
ltibia 13.8472
lfoot -10.6027 6.43794
ltoes -12.8847
359
root 0.601432 17.9407 -0.46098 2.05994 -30.7469 2.55117
lowerback 2.13283 -1.35995 -4.54649
upperback -0.247867 -1.90407 2.35705
thorax -1.2235 -0.915246 5.04693
lowerneck -25.1258 -0.652778 -10.1674
upperneck -4.56814 1.47059 7.47349
head 2.30555 1.13598 4.11244
rclavicle -4.80065e-014 -2.3059e-014
rhumerus -33.5547 -5.74635 -71.659
rradius 39.9366
rwrist 14.5376
rhand -26.0258 11.1845
rfingers 7.12502
rthumb 0.52083 -18.7946
lclavicle -4.80065e-014 -2.3059e-014
lhumerus 50.7153 3.19095 44.1923
lradius 100.297
lwrist 0.579794
lhand -40.6778 28.6816
lfingers 7.12502
lthumb -13.6211 58.216
rfemur -11.0692 2.96495 9.65635
rtibia 25.3437
rfoot -16.2293 -9.58588
rtoes 1.17885
lfemur -1.51953 1.98938 -24.5216
ltibia 13.9121
lfoot -10.5785 6.48144
ltoes -12.5297
360
root 0.604404 17.9415 -0.467554 2.06161 -30.7157 2.59893
lowerback 2.118 -1.38783 -4.6023
upperback -0.213854 -1.94221 2.32541
thorax -1.17475 -0.936186 5.04534
lowerneck -24.6647 -0.591001 -9.95016
upperneck -4.6404 1.46149 7.27536
head 2.22477 1.1135 4.0067
rclavicle 4.74598e-014 -7.95139e-016
rhumerus -33.5624 -5.68119 -71.7517
rradius 40.0814
rwrist 14.4085
rhand -25.8947 10.9971
rfingers 7.12502
rthumb 0.647435 -18.9816
lclavicle 4.74598e-014 -7.95139e-016
lhumerus 50.2709 2.78297 44.1448
lradius 100.748
lwrist 1.19574
lhand -40.7409 29.4723
lfingers 7.12502
lthumb -13.6819 59.0026
rfemur -11.0944 2.94226 9.60503
rtibia 25.3314
rfoot -16.2564 -9.55274
rtoes 1.2651
lfemur -1.62 1.92526 -24.5624
ltibia 13.9924
lfoot -10.6206 6.47694
ltoes -12.1933
361
root 0.607546 17.9414 -0.477249 2.09978 -30.7191 2.62226
lowerback 2.10191 -1.40885 -4.6812
upperback -0.17619 -1.97144 2.31766
thorax -1.121 -0.952779 5.08146
lowerneck -24.5696 -0.48767 -10.0532
upperneck -4.30711 1.61125 7.34148
head 2.30186 1.19027 4.05716
rclavicle -2.43511e-015 -3.18055e-015
rhumerus -33.4968 -5.53962 -71.8351
rradius 40.1699
rwrist 14.3051
rhand -25.8012 11.0287
rfingers 7.12502
rthumb 0.73772 -18.9498
lclavicle -2.43511e-015 -3.18055e-015
lhumerus 49.8394 2.46279 44.2639
lradius 100.998
lwrist 1.79062
lhand -40.608 29.1468
lfingers 7.12502
lthumb -13.5538 58.6857
rfemur -11.1967 2.91076 9.59181
rtibia 25.3397
rfoot -16.187 -9.57114
rtoes 0.846219
lfemur -1.72838 1.82953 -24.589
ltibia 14.0164
lfoot -10.6157 6.57037
ltoes -12.2114
362
root 0.611206 17.9415 -0.486388 2.16861 -30.7719 2.55677
lowerback 2.1439 -1.4017 -4.69364
upperback -0.186255 -1.96384 2.33948
thorax -1.15472 -0.947656 5.11269
lowerneck -24.5348 -0.373287 -10.1733
upperneck -3.75242 1.77891 7.4947
head 2.45391 1.2803 4.14236
rclavicle 1.98785e-015 -5.56597e-015
rhumerus -33.56 -5.34843 -71.8688
rradius 40.3015
rwrist 14.1367
rhand -25.7737 11.0443
rfingers 7.12502
rthumb 0.76432 -18.9341
lclavicle 1.98785e-015 -5.56597e-015
lhumerus 49.3622 2.035 44.4826
lradius 101.13
lwrist 1.81556
lhand -39.6628 29.0674
lfingers 7.12502
lthumb -12.6427 58.6647
rfemur -11.3172 2.96894 9.66397
rtibia 25.3668
rfoot -16.1401 -9.64236
rtoes 0.696251
lfemur -1.78816 1.79708 -24.5409
ltibia 14.0037
lfoot -10.5821 6.68604
ltoes -12.8045
363
root 0.613141 17.9427 -0.490462 2.16463 -30.8409 2.56818
lowerback 2.13039 -1.37806 -4.74792
upperback -0.148762 -1.933 2.32027
thorax -1.11115 -0.934044 5.1216
lowerneck -24.5274 -0.364592 -10.3554
upperneck -3.19846 1.82295 7.73691
head 2.61977 1.31454 4.25721
rclavicle 9.44227e-015 2.38542e-015
rhumerus -33.6187 -5.22192 -71.9343
rradius 40.4562
rwrist 13.9365
rhand -25.8876 10.9419
rfingers 7.12502
rthumb 0.654282 -19.0369
lclavicle 9.44227e-015 2.38542e-015
lhumerus 48.8971 1.54869 44.6414
lradius 101.317
lwrist 1.70248
lhand -38.6785 28.9888
lfingers 7.12502
lthumb -11.6937 58.6425
rfemur -11.3491 3.01889 9.63377
rtibia 25.3575
rfoot -16.1286 -9.57635
rtoes 1.41199
lfemur -1.80058 1.90063 -24.571
ltibia 14.0185
lfoot -10.5369 6.72275
ltoes -13.5339
364
root 0.614522 17.9427 -0.49332 2.13473 -30.8854 2.62364
lowerback 1.99906 -1.35537 -4.79948
upperback -0.0117867 -1.89782 2.25639
thorax -0.900972 -0.925616 5.07676
lowerneck -24.7607 -0.431005 -10.577
upperneck -2.64022 1.79723 8.01301
head 2.82528 1.31965 4.38794
rclavicle -2.3556e-014 -6.36111e-015
rhumerus -33.441 -5.39247 -71.9964
rradius 40.4051
rwrist 13.9772
rhand -25.9578 11.0493
rfingers 7.12502
rthumb 0.586539 -18.9296
lclavicle -2.3556e-014 -6.36111e-015
lhumerus 48.5633 1.03935 44.7003
lradius 101.472
lwrist 1.97297
lhand -39.2607 29.1914
lfingers 7.12502
lthumb -12.255 58.8123
rfemur -11.3474 2.9703 9.56554
rtibia 25.327
rfoot -16.0646 -9.47981
rtoes 2.29877
lfemur -1.79972 2.01134 -24.6358
ltibia 14.0138
lfoot -10.4652 6.71477
ltoes -13.6507
